700 0 3 0           
30 Autodesk Translation Framework 20 ASM 228.3.1.65535 NT 24 Wed Feb 22 12:05:13 2023 
1 9.999999999999999547e-07 1.000000000000000036e-10 
body $3 -1 $-1 $4 $-1 $5 #
body $6 -1 $-1 $7 $-1 $8 #
body $9 -1 $-1 $10 $-1 $11 #
rgb_color-st-attrib $-1 -1 $12 $-1 $0 0.7960784313725489669 0.8235294117647058432 0.9372549019607843146 #
lump $-1 -1 $-1 $-1 $13 $0 #
transform $-1 -1 1 0 0 0 1 0 0 0 1 0 0 0 1 no_rotate no_reflect no_shear #
rgb_color-st-attrib $-1 -1 $14 $-1 $1 0.7490196078431372584 0.7490196078431372584 0.7490196078431372584 #
lump $-1 -1 $-1 $-1 $15 $1 #
transform $-1 -1 1 0 0 0 1 0 0 0 1 0 0 0 1 no_rotate no_reflect no_shear #
rgb_color-st-attrib $-1 -1 $16 $-1 $2 0.7490196078431372584 0.7490196078431372584 0.7490196078431372584 #
lump $-1 -1 $-1 $-1 $17 $2 #
transform $-1 -1 1 0 0 0 1 0 0 0 1 0 0 0 1 no_rotate no_reflect no_shear #
DXID-attrib $-1 -1 $-1 $3 $0 @10 ASM ENTITY @115 HERRAMIENTA MARCADOR BASE.IPT|:|323CB945BE79CB3F7D1BD7990CF6AD4E8B5E9DC3|:|DA4B9237BACCCDF19C0760CAB7AEC4A8359010B0 #
shell $-1 -1 $-1 $-1 $-1 $18 $-1 $4 #
DXID-attrib $-1 -1 $-1 $6 $1 @10 ASM ENTITY @119 HERRAMIENTA MARCADOR CONECTOR.IPT|:|F3B23B2B3DADB08A7662CF6C53725C148185BBC9|:|DA4B9237BACCCDF19C0760CAB7AEC4A8359010B0 #
shell $-1 -1 $-1 $-1 $-1 $19 $-1 $7 #
DXID-attrib $-1 -1 $-1 $9 $2 @10 ASM ENTITY @98 MARCADOR.IPT|:|5F8F3D3DF311511CA0F8A1798376F80205FF4155|:|DA4B9237BACCCDF19C0760CAB7AEC4A8359010B0 #
shell $-1 -1 $-1 $-1 $-1 $20 $-1 $10 #
face $21 -1 $-1 $22 $23 $13 $-1 $24 reversed single #
face $25 -1 $-1 $26 $27 $15 $-1 $28 forward single #
face $29 -1 $-1 $30 $31 $17 $-1 $32 forward single #
DXID-attrib $-1 -1 $-1 $-1 $18 @10 ASM ENTITY @36 63c45650-9513-4e33-95c2-544cdbda54cb #
face $33 -1 $-1 $34 $35 $13 $-1 $36 forward single #
loop $-1 -1 $-1 $37 $38 $18 #
cone-surface $-1 -1 $-1 -1.136868377216160297e-12 -4.000114423497890925 12.99999999999954525 1.724950288194713613e-15 -2.327698545470817706e-17 -1 1.25 3.999356683321805755e-13 2.15618786024338255e-15 1 I I 0 1 1.25 forward I I I I #
DXID-attrib $-1 -1 $-1 $-1 $19 @10 ASM ENTITY @36 c98ac257-3a28-40bd-abea-807c1bf4e873 #
face $39 -1 $-1 $40 $41 $15 $-1 $42 forward single #
loop $-1 -1 $-1 $-1 $43 $19 #
cone-surface $-1 -1 $-1 -1.452788549618318028e-13 -8.24794698777650308e-14 12.99999999999999289 1.532922818390360437e-15 -2.327698545471861098e-17 -1 24.49999999999995381 7.522409858708174966e-12 3.7556609050563584e-14 1 I I 0 1 24.49999999999995381 forward I I I I #
DXID-attrib $-1 -1 $-1 $-1 $20 @10 ASM ENTITY @36 adb9dad8-8843-4556-8b8a-51497d14856a #
face $44 -1 $-1 $45 $46 $17 $-1 $47 forward single #
loop $-1 -1 $-1 $48 $49 $20 #
cone-surface $-1 -1 $-1 21.99999999999953104 6.754089725727276535e-12 173.0000000000000568 1.711128352630819328e-15 -2.327698545471861098e-17 -1 -1.375316962421168965 7.880894825644904067 -2.536787322479660837e-15 1 I I 0 1 8 forward I I I I #
DXID-attrib $-1 -1 $-1 $-1 $22 @10 ASM ENTITY @36 325d7537-5674-47ae-bd0d-980e6697c687 #
face $50 -1 $-1 $51 $52 $13 $-1 $53 reversed single #
loop $-1 -1 $-1 $-1 $54 $22 #
plane-surface $-1 -1 $-1 -1.136868377216160297e-12 -4.000114423497890925 9.999999999999545253 -1.723925475178540736e-15 2.32769854547085037e-17 1 10 3.199485346657444604e-12 1.723925475178533202e-14 forward_v I I I I #
loop $-1 -1 $-1 $-1 $55 $18 #
coedge $-1 -1 $-1 $38 $38 $54 $56 forward $23 $-1 #
DXID-attrib $-1 -1 $-1 $-1 $26 @10 ASM ENTITY @36 8e289a0a-1f55-49e2-a356-0dd6bfa6bf40 #
face $57 -1 $-1 $58 $59 $15 $-1 $60 forward single #
loop $-1 -1 $-1 $-1 $61 $26 #
cone-surface $-1 -1 $-1 -1.485309762740540904e-13 -8.284376180772115741e-14 12.99999999999999289 1.532922818390360437e-15 -2.327698545471861098e-17 -1 -11.00000000000000533 -3.377408507991433688e-12 -1.6862151002293895e-14 1 I I 0 -1 11.00000000000000533 forward I I I I #
coedge $-1 -1 $-1 $62 $63 $64 $65 reversed $27 $-1 #
DXID-attrib $-1 -1 $-1 $-1 $30 @10 ASM ENTITY @36 0c693f26-8417-4042-9e3c-a6ca10b23a2e #
face $66 -1 $-1 $-1 $67 $17 $-1 $68 reversed single #
loop $-1 -1 $-1 $-1 $69 $30 #
plane-surface $-1 -1 $-1 21.99999999999976907 6.750830947763616206e-12 33.00000000000005684 1.711128352630819328e-15 -2.327698545471861098e-17 -1 -9.851118532056128529 -1.719146203026461261 -1.681651168416575798e-14 forward_v I I I I #
loop $-1 -1 $-1 $-1 $70 $20 #
coedge $-1 -1 $-1 $49 $49 $69 $71 reversed $31 $-1 #
DXID-attrib $-1 -1 $-1 $-1 $34 @10 ASM ENTITY @36 3f7419e0-495d-4dc6-93d6-9e4e55a70f3d #
face $72 -1 $-1 $73 $74 $13 $-1 $75 forward single #
loop $-1 -1 $-1 $76 $77 $34 #
cone-surface $-1 -1 $-1 -3.751665644813328981e-12 3.999885576502110407 12.99999999999954525 1.724950288194713613e-15 -2.327698545470817706e-17 -1 1.25 3.999356683321805755e-13 2.15618786024338255e-15 1 I I 0 1 1.25 forward I I I I #
coedge $-1 -1 $-1 $54 $54 $38 $56 reversed $35 $-1 #
coedge $-1 -1 $-1 $55 $55 $78 $79 reversed $37 $-1 #
edge $80 -1 $-1 $81 -6.283185307179586232 $81 3.80164218415057891e-71 $38 $82 forward @7 unknown #
DXID-attrib $-1 -1 $-1 $-1 $40 @10 ASM ENTITY @36 3f8f03bd-8eac-4a22-b201-38171be4cf86 #
face $83 -1 $-1 $84 $85 $15 $-1 $86 forward single #
loop $-1 -1 $-1 $-1 $87 $40 #
plane-surface $-1 -1 $-1 12.24999999999983658 3.715558684587354106e-12 8.000000000000012434 1.532922818390360437e-15 -2.327698545471861098e-17 -1 10 3.070371370901301847e-12 1.532922818390353259e-14 forward_v I I I I #
coedge $-1 -1 $-1 $88 $89 $90 $91 reversed $41 $-1 #
coedge $-1 -1 $-1 $92 $43 $93 $94 forward $27 $-1 #
coedge $-1 -1 $-1 $43 $92 $95 $96 reversed $27 $-1 #
coedge $-1 -1 $-1 $97 $98 $43 $65 forward $99 $-1 #
edge $-1 -1 $-1 $100 -0.4656230297856062683 $101 0.4656230297856132072 $64 $102 forward @7 unknown #
DXID-attrib $-1 -1 $-1 $-1 $45 @10 ASM ENTITY @36 c3e280d6-e266-46ba-ad67-b5ed3ad67570 #
loop $-1 -1 $-1 $-1 $103 $45 #
plane-surface $-1 -1 $-1 21.99999999999953104 6.754089725727276535e-12 173.0000000000000568 1.711128352630819328e-15 -2.327698545471861098e-17 -1 -9.851118532056128529 -1.719146203026461261 -1.681651168416575798e-14 forward_v I I I I #
coedge $-1 -1 $-1 $69 $69 $49 $71 forward $46 $-1 #
coedge $-1 -1 $-1 $70 $70 $103 $104 forward $48 $-1 #
edge $105 -1 $-1 $106 0 $106 6.283185307179586232 $49 $107 forward @7 unknown #
DXID-attrib $-1 -1 $-1 $-1 $51 @10 ASM ENTITY @36 18244d2e-a822-45d0-9303-a7bf38177cae #
face $108 -1 $-1 $109 $110 $13 $-1 $111 forward single #
loop $-1 -1 $-1 $-1 $112 $51 #
plane-surface $-1 -1 $-1 -3.751665644813328981e-12 3.999885576502110407 9.999999999999545253 -1.723925475178540736e-15 2.32769854547085037e-17 1 10 3.199485346657444604e-12 1.723925475178533202e-14 forward_v I I I I #
loop $-1 -1 $-1 $-1 $113 $34 #
coedge $-1 -1 $-1 $77 $77 $112 $114 forward $52 $-1 #
coedge $-1 -1 $-1 $78 $78 $55 $79 forward $115 $-1 #
edge $-1 -1 $-1 $116 0 $116 6.283185307179586232 $78 $117 forward @7 unknown #
DXID-attrib $-1 -1 $-1 $-1 $56 @10 ASM ENTITY @36 f7473302-98c5-46de-bc43-83261623f39b #
vertex $-1 -1 $-1 $56 $118 #
ellipse-curve $-1 -1 $-1 -1.136868377216160297e-12 -4.000114423497890925 9.999999999999545253 1.723925475178540736e-15 -2.32769854547085037e-17 -1 1.25 3.999356683321805755e-13 2.154906843973166502e-15 1 I I #
DXID-attrib $-1 -1 $-1 $-1 $58 @10 ASM ENTITY @36 8b2085d2-17f0-4e50-b10b-459f003e6bac #
face $119 -1 $-1 $120 $121 $15 $-1 $122 forward single #
loop $-1 -1 $-1 $123 $90 $58 #
plane-surface $-1 -1 $-1 10.99999999999984901 3.372956900063102436e-12 13.00000000000001066 1.532922818390360437e-15 -2.327698545471861098e-17 -1 10 3.070371370901301847e-12 1.532922818390353259e-14 forward_v I I I I #
coedge $-1 -1 $-1 $124 $125 $126 $127 forward $59 $-1 #
coedge $-1 -1 $-1 $126 $61 $128 $129 forward $41 $-1 #
coedge $-1 -1 $-1 $61 $126 $130 $131 reversed $41 $-1 #
coedge $-1 -1 $-1 $132 $132 $61 $91 forward $85 $-1 #
edge $-1 -1 $-1 $133 1.570796326794896558 $134 4.712388980384689674 $90 $135 forward @7 unknown #
coedge $-1 -1 $-1 $63 $62 $136 $137 reversed $27 $-1 #
coedge $-1 -1 $-1 $138 $139 $62 $94 reversed $140 $-1 #
edge $141 -1 $-1 $100 0 $142 0.5 $62 $143 forward @7 unknown #
coedge $-1 -1 $-1 $144 $145 $63 $96 forward $146 $-1 #
edge $147 -1 $-1 $101 0 $148 0.5 $95 $149 forward @7 unknown #
coedge $-1 -1 $-1 $150 $64 $145 $151 forward $99 $-1 #
coedge $-1 -1 $-1 $64 $150 $138 $152 forward $99 $-1 #
loop $-1 -1 $-1 $-1 $64 $153 #
vertex $-1 -1 $-1 $65 $154 #
vertex $-1 -1 $-1 $65 $155 #
ellipse-curve $-1 -1 $-1 -1.452788549618318028e-13 -8.24794698777650308e-14 12.99999999999999289 -1.532922818390360437e-15 2.327698545471861098e-17 1 24.49999999999995381 7.522409858708174966e-12 3.7556609050563584e-14 1 I I #
coedge $-1 -1 $-1 $103 $103 $70 $104 reversed $67 $-1 #
edge $156 -1 $-1 $157 0 $157 6.283185307179586232 $70 $158 forward @7 unknown #
DXID-attrib $-1 -1 $-1 $-1 $71 @10 ASM ENTITY @36 f5062c6b-8d32-4e54-bf78-a5906d25fab9 #
vertex $-1 -1 $-1 $71 $159 #
ellipse-curve $-1 -1 $-1 21.99999999999976907 6.750830947763616206e-12 33.00000000000005684 1.711128352630819328e-15 -2.327698545471861098e-17 -1 -1.375316962421168965 7.880894825644904067 -2.536787322479660837e-15 1 I I #
DXID-attrib $-1 -1 $-1 $-1 $73 @10 ASM ENTITY @36 860fd7e8-550b-4db2-a945-39acb5cdf468 #
face $160 -1 $-1 $161 $115 $13 $-1 $162 forward single #
loop $-1 -1 $-1 $163 $164 $73 #
cone-surface $-1 -1 $-1 -2.501110429875552654e-12 -1.974334825004948228e-13 7.999999999999545253 -1.724950288194713613e-15 2.327698545470817706e-17 1 11 3.519433881323189427e-12 1.897445317014176928e-14 1 I I 0 1 11 forward I I I I #
coedge $-1 -1 $-1 $112 $112 $77 $114 reversed $74 $-1 #
coedge $-1 -1 $-1 $113 $113 $165 $166 reversed $76 $-1 #
edge $167 -1 $-1 $168 -6.283185307179586232 $168 3.80164218415057891e-71 $77 $169 forward @7 unknown #
loop $-1 -1 $-1 $170 $78 $109 #
vertex $-1 -1 $-1 $79 $171 #
ellipse-curve $-1 -1 $-1 -1.136868377216160297e-12 -4.000114423497890925 12.99999999999954525 1.723925475178540736e-15 -2.32769854547085037e-17 -1 1.25 3.999356683321805755e-13 2.15618786024338255e-15 1 I I #
point $-1 -1 $-1 1.249999999998863132 -4.000114423497491245 9.999999999999545253 #
DXID-attrib $-1 -1 $-1 $-1 $84 @10 ASM ENTITY @36 bfcd0633-5a9a-4265-9949-462148836902 #
face $172 -1 $-1 $173 $174 $15 $-1 $175 forward single #
loop $-1 -1 $-1 $-1 $176 $84 #
plane-surface $-1 -1 $-1 21.99999999999982236 6.75083094776362913e-12 33.00000000000002842 -1.532922818390360437e-15 2.327698545471861098e-17 1 -10 -3.070371370901301847e-12 -1.532922818390353259e-14 forward_v I I I I #
loop $-1 -1 $-1 $177 $178 $58 #
coedge $-1 -1 $-1 $136 $87 $144 $179 forward $59 $-1 #
coedge $-1 -1 $-1 $87 $136 $139 $180 forward $59 $-1 #
coedge $-1 -1 $-1 $89 $88 $87 $127 reversed $41 $-1 #
edge $181 -1 $-1 $182 1.570796326794896558 $183 4.712388980384689674 $126 $184 forward @7 unknown #
coedge $-1 -1 $-1 $185 $144 $88 $129 reversed $146 $-1 #
edge $186 -1 $-1 $133 0 $183 0.5 $88 $187 forward @5 knife #
coedge $-1 -1 $-1 $139 $188 $89 $131 forward $140 $-1 #
edge $189 -1 $-1 $134 0 $182 0.5 $89 $190 forward @5 knife #
coedge $-1 -1 $-1 $90 $90 $191 $192 forward $85 $-1 #
vertex $-1 -1 $-1 $91 $193 #
vertex $-1 -1 $-1 $91 $194 #
ellipse-curve $-1 -1 $-1 -1.485309762740540904e-13 -8.284376180772115741e-14 12.99999999999999289 1.532922818390360437e-15 -2.327698545471861098e-17 -1 -11.00000000000000533 -3.377408507991433688e-12 -1.6862151002293895e-14 1 I I #
coedge $-1 -1 $-1 $125 $124 $92 $137 forward $59 $-1 #
edge $195 -1 $-1 $148 -0.4656230297856132072 $142 0.4656230297856062683 $92 $196 forward @7 unknown #
coedge $-1 -1 $-1 $197 $93 $98 $152 reversed $140 $-1 #
coedge $-1 -1 $-1 $93 $130 $125 $180 reversed $140 $-1 #
loop $-1 -1 $-1 $-1 $198 $199 #
DXID-attrib $-1 -1 $-1 $-1 $94 @10 ASM ENTITY @36 4291ecc2-479a-40fc-9fe0-708e356a7a97 #
vertex $-1 -1 $-1 $94 $200 #
straight-curve $-1 -1 $-1 21.89177927899285336 -10.99999999999328537 13.00000000000002665 1.532922818390360516e-14 -2.327698545471861098e-16 -10 I I #
coedge $-1 -1 $-1 $128 $95 $124 $179 reversed $146 $-1 #
coedge $-1 -1 $-1 $95 $201 $97 $151 reversed $146 $-1 #
loop $-1 -1 $-1 $-1 $202 $203 #
DXID-attrib $-1 -1 $-1 $-1 $96 @10 ASM ENTITY @36 777ffb04-b475-4bde-961f-884d030ea32a #
vertex $-1 -1 $-1 $137 $204 #
straight-curve $-1 -1 $-1 21.8917792789860215 11.00000000000671818 13.00000000000002665 1.532922818390360516e-14 -2.327698545471861098e-16 -10 I I #
coedge $-1 -1 $-1 $98 $97 $205 $206 forward $99 $-1 #
edge $207 -1 $-1 $101 2.189177927898954934 $208 2.200000000000000178 $145 $209 forward @7 unknown #
edge $210 -1 $-1 $211 0 $100 0.01082207210103769413 $138 $212 forward @7 unknown #
face $213 -1 $-1 $214 $99 $15 $-1 $86 forward single #
point $-1 -1 $-1 21.89177927899285336 -10.99999999999328537 13.00000000000002665 #
point $-1 -1 $-1 21.8917792789860215 11.00000000000671818 13.00000000000002665 #
DXID-attrib $-1 -1 $-1 $-1 $104 @10 ASM ENTITY @36 047a95ca-98d7-4445-9ac6-15763ef20c1a #
vertex $-1 -1 $-1 $104 $215 #
ellipse-curve $-1 -1 $-1 21.99999999999953104 6.754089725727276535e-12 173.0000000000000568 1.711128352630819328e-15 -2.327698545471861098e-17 -1 -1.375316962421168965 7.880894825644904067 -2.536787322479660837e-15 1 I I #
point $-1 -1 $-1 20.62468303757860255 7.880894825651654223 33.00000000000005684 #
DXID-attrib $-1 -1 $-1 $-1 $109 @10 ASM ENTITY @36 c42ca83a-db2b-4c9e-8c19-ca74d6b99092 #
face $216 -1 $-1 $217 $218 $13 $-1 $219 forward single #
plane-surface $-1 -1 $-1 -2.501110429875552654e-12 -1.963456524266752662e-13 12.99999999999954525 -1.723925475178540736e-15 2.32769854547085037e-17 1 10 3.199485346657444604e-12 1.723925475178533202e-14 forward_v I I I I #
loop $-1 -1 $-1 $-1 $220 $73 #
coedge $-1 -1 $-1 $164 $164 $221 $222 reversed $110 $-1 #
coedge $-1 -1 $-1 $165 $165 $113 $166 forward $170 $-1 #
edge $-1 -1 $-1 $223 0 $223 6.283185307179586232 $165 $224 forward @7 unknown #
DXID-attrib $-1 -1 $-1 $-1 $114 @10 ASM ENTITY @36 32c185cf-07b7-4d05-a3e7-f77c7a3b14e7 #
vertex $-1 -1 $-1 $114 $225 #
ellipse-curve $-1 -1 $-1 -3.751665644813328981e-12 3.999885576502110407 9.999999999999545253 1.723925475178540736e-15 -2.32769854547085037e-17 -1 1.25 3.999356683321805755e-13 2.154906843973166502e-15 1 I I #
loop $-1 -1 $-1 $226 $165 $109 #
point $-1 -1 $-1 1.249999999998863132 -4.000114423497491245 12.99999999999954525 #
DXID-attrib $-1 -1 $-1 $-1 $120 @10 ASM ENTITY @36 0887cd79-4a39-4e62-ba1f-c444377b245a #
face $227 -1 $-1 $228 $229 $15 $-1 $230 forward single #
loop $-1 -1 $-1 $231 $232 $120 #
cone-surface $-1 -1 $-1 -1.377817436718193773e-12 3.999885576502300477 12.99999999999999289 1.532922818390360437e-15 -2.327698545471861098e-17 -1 1.25 3.837964213626627309e-13 1.916153522987941573e-15 1 I I 0 1 1.25 forward I I I I #
coedge $-1 -1 $-1 $176 $176 $233 $234 forward $121 $-1 #
loop $-1 -1 $-1 $-1 $235 $58 #
coedge $-1 -1 $-1 $178 $178 $236 $237 forward $123 $-1 #
edge $238 -1 $-1 $183 0 $148 2.189177927898954934 $144 $239 forward @7 unknown #
edge $240 -1 $-1 $142 0.01082207210103769413 $182 2.200000000000000178 $139 $241 forward @7 unknown #
DXID-attrib $-1 -1 $-1 $-1 $127 @10 ASM ENTITY @36 81241c09-1499-4f51-b9a2-3e251a8cff37 #
vertex $-1 -1 $-1 $127 $242 #
vertex $-1 -1 $-1 $129 $243 #
ellipse-curve $-1 -1 $-1 -1.408663621821022879e-13 -8.296014673499476225e-14 7.999999999999992895 -1.532922818390360437e-15 2.327698545471861098e-17 1 -11.00000000000000533 -3.377408507991433688e-12 -1.6862151002293895e-14 1 I I #
coedge $-1 -1 $-1 $202 $128 $244 $245 reversed $146 $-1 #
DXID-attrib $-1 -1 $-1 $-1 $129 @10 ASM ENTITY @36 96355fec-65da-4cc2-a156-2d73addfdd9a #
straight-curve $-1 -1 $-1 -3.527667640124565629e-12 10.99999999999999645 12.99999999999999289 1.532922818390360516e-14 -2.327698545471861098e-16 -10 I I #
coedge $-1 -1 $-1 $130 $198 $246 $247 forward $140 $-1 #
DXID-attrib $-1 -1 $-1 $-1 $131 @10 ASM ENTITY @36 683d3acb-622f-4631-9a1b-f2b8950b824b #
straight-curve $-1 -1 $-1 3.22714937585829892e-12 -11.00000000000000355 12.99999999999999289 1.532922818390360516e-14 -2.327698545471861098e-16 -10 I I #
coedge $-1 -1 $-1 $246 $244 $132 $192 reversed $248 $-1 #
edge $249 -1 $-1 $134 0 $133 3.141592653589793116 $191 $250 forward @7 unknown #
point $-1 -1 $-1 -3.527667640124565629e-12 10.99999999999999645 12.99999999999999289 #
point $-1 -1 $-1 3.22714937585829892e-12 -11.00000000000000355 12.99999999999999289 #
DXID-attrib $-1 -1 $-1 $-1 $137 @10 ASM ENTITY @36 9abc558d-675c-46f2-abaa-26bd8eef0764 #
ellipse-curve $-1 -1 $-1 -1.376142408698800254e-13 -8.259585480503863564e-14 7.999999999999992895 1.532922818390360437e-15 -2.327698545471861098e-17 -1 24.49999999999995381 7.522409858708174966e-12 3.7556609050563584e-14 1 I I #
coedge $-1 -1 $-1 $198 $138 $251 $252 reversed $140 $-1 #
coedge $-1 -1 $-1 $188 $197 $253 $254 forward $140 $-1 #
face $255 -1 $-1 $256 $140 $15 $-1 $257 forward single #
point $-1 -1 $-1 21.89177927899286047 -10.99999999999328537 8.000000000000026645 #
coedge $-1 -1 $-1 $145 $202 $258 $259 forward $146 $-1 #
coedge $-1 -1 $-1 $201 $185 $260 $261 forward $146 $-1 #
face $262 -1 $-1 $263 $146 $15 $-1 $264 forward single #
point $-1 -1 $-1 21.89177927898603215 11.00000000000671818 8.000000000000026645 #
coedge $-1 -1 $-1 $258 $251 $150 $206 reversed $265 $-1 #
edge $266 -1 $-1 $208 -3.141592653589793116 $211 0 $205 $267 forward @7 unknown #
DXID-attrib $-1 -1 $-1 $-1 $151 @10 ASM ENTITY @36 23932606-b550-4f3d-a45a-572c52226d76 #
vertex $-1 -1 $-1 $206 $268 #
straight-curve $-1 -1 $-1 -3.527667640124565629e-12 10.99999999999999645 12.99999999999999289 10 3.070371370901301847e-12 1.532922818390353259e-14 I I #
DXID-attrib $-1 -1 $-1 $-1 $152 @10 ASM ENTITY @36 ca243a82-5d58-46e7-a710-43f78417aa7d #
vertex $-1 -1 $-1 $152 $269 #
straight-curve $-1 -1 $-1 22.00000000000322942 -10.99999999999324984 13.00000000000002665 -10 -3.070371370901301847e-12 -1.532922818390353259e-14 I I #
DXID-attrib $-1 -1 $-1 $-1 $153 @10 ASM ENTITY @36 dd8cfa87-380d-4685-90a1-0292cbaf7e1b #
face $270 -1 $-1 $-1 $271 $15 $-1 $272 reversed single #
point $-1 -1 $-1 20.62468303757836097 7.880894825651657776 173.0000000000000568 #
DXID-attrib $-1 -1 $-1 $-1 $161 @10 ASM ENTITY @36 910d6ced-fec8-4f23-b1d8-bf9ff980f8aa #
face $273 -1 $-1 $274 $275 $13 $-1 $276 forward single #
loop $-1 -1 $-1 $277 $278 $161 #
cone-surface $-1 -1 $-1 14.14213562373299737 -14.14213562372663091 -4.54747350886464119e-13 -1.724950288194713613e-15 2.327698545470817706e-17 1 -2.674999999999998934 -8.558623302308662124e-13 -4.614242020920837576e-15 1 I I 0 -1 2.674999999999998934 forward I I I I #
coedge $-1 -1 $-1 $220 $220 $279 $280 reversed $163 $-1 #
coedge $-1 -1 $-1 $221 $221 $164 $222 forward $226 $-1 #
edge $281 -1 $-1 $282 -3.80164218415057891e-71 $282 6.283185307179586232 $164 $283 forward @7 unknown #
vertex $-1 -1 $-1 $166 $284 #
ellipse-curve $-1 -1 $-1 -3.751665644813328981e-12 3.999885576502110407 12.99999999999954525 1.723925475178540736e-15 -2.32769854547085037e-17 -1 1.25 3.999356683321805755e-13 2.15618786024338255e-15 1 I I #
point $-1 -1 $-1 1.249999999996248334 3.999885576502510087 9.999999999999545253 #
loop $-1 -1 $-1 $-1 $221 $109 #
DXID-attrib $-1 -1 $-1 $-1 $173 @10 ASM ENTITY @36 be919298-c5b1-420d-b09c-1fa04c99537a #
face $285 -1 $-1 $286 $287 $15 $-1 $288 forward single #
loop $-1 -1 $-1 $-1 $289 $173 #
plane-surface $-1 -1 $-1 -1.373218668263022575e-12 3.999885576502300033 9.999999999999992895 1.532922818390360437e-15 -2.327698545471861098e-17 -1 10 3.070371370901301847e-12 1.532922818390353259e-14 forward_v I I I I #
loop $-1 -1 $-1 $-1 $236 $120 #
coedge $-1 -1 $-1 $232 $232 $289 $290 reversed $174 $-1 #
coedge $-1 -1 $-1 $233 $233 $176 $234 reversed $291 $-1 #
edge $292 -1 $-1 $293 0 $293 6.283185307179586232 $233 $294 forward @7 unknown #
coedge $-1 -1 $-1 $235 $235 $295 $296 forward $177 $-1 #
coedge $-1 -1 $-1 $236 $236 $178 $237 reversed $231 $-1 #
edge $297 -1 $-1 $298 -3.141592653589793116 $298 3.141592653589793116 $178 $299 forward @7 unknown #
DXID-attrib $-1 -1 $-1 $-1 $179 @10 ASM ENTITY @36 fa3335df-f9f2-4c9b-8107-0b7faff854ff #
straight-curve $-1 -1 $-1 -3.520003026032613902e-12 10.99999999999999645 7.999999999999992895 10 3.070371370901301847e-12 1.532922818390353259e-14 I I #
DXID-attrib $-1 -1 $-1 $-1 $180 @10 ASM ENTITY @36 06184606-fc44-4207-b593-c06ac24ab9b3 #
straight-curve $-1 -1 $-1 22.00000000000324007 -10.99999999999324984 8.000000000000026645 -10 -3.070371370901301847e-12 -1.532922818390353259e-14 I I #
point $-1 -1 $-1 3.234813989950250647e-12 -11.00000000000000355 7.999999999999992895 #
point $-1 -1 $-1 -3.520003026032613902e-12 10.99999999999999645 7.999999999999992895 #
coedge $-1 -1 $-1 $191 $300 $185 $245 forward $248 $-1 #
edge $301 -1 $-1 $302 0 $133 0.5 $244 $303 forward @7 tangent #
coedge $-1 -1 $-1 $300 $191 $188 $247 reversed $248 $-1 #
edge $304 -1 $-1 $305 0 $134 0.5 $246 $306 forward @7 tangent #
loop $-1 -1 $-1 $-1 $300 $263 #
DXID-attrib $-1 -1 $-1 $-1 $192 @10 ASM ENTITY @36 d0162af9-3dff-4fbd-97b4-8c1e0d0677b3 #
ellipse-curve $-1 -1 $-1 -1.50259132133133657e-13 -4.45160792832978834e-15 12.99999999999999289 1.532922818390360437e-15 -2.327698545471861098e-17 -1 3.377408507991432073e-12 -11 2.560468400070820642e-16 1 I I #
coedge $-1 -1 $-1 $205 $307 $197 $252 forward $265 $-1 #
edge $308 -1 $-1 $309 0 $211 0.5 $251 $310 forward @7 tangent #
coedge $-1 -1 $-1 $311 $312 $198 $254 reversed $271 $-1 #
edge $313 -1 $-1 $309 0 $305 2.200000000000000178 $198 $314 forward @7 unknown #
DXID-attrib $-1 -1 $-1 $-1 $199 @10 ASM ENTITY @36 0e93dfee-52e2-4b25-b2d2-bf313a323581 #
face $315 -1 $-1 $203 $291 $15 $-1 $316 forward single #
plane-surface $-1 -1 $-1 22.00000000000322586 -10.99999999999324984 18.00000000000002842 3.070371370901301746e-13 -1 2.327698545518927436e-17 -10 -3.070371370901301847e-12 -1.532922818390353259e-14 forward_v I I I I #
coedge $-1 -1 $-1 $307 $205 $201 $259 reversed $265 $-1 #
edge $317 -1 $-1 $318 0 $208 0.5 $201 $319 forward @7 tangent #
coedge $-1 -1 $-1 $312 $311 $202 $261 reversed $271 $-1 #
edge $320 -1 $-1 $302 0 $318 2.200000000000000178 $202 $321 forward @7 unknown #
DXID-attrib $-1 -1 $-1 $-1 $203 @10 ASM ENTITY @36 fe3ab795-f875-4ca4-a79a-ed5fa78fc24d #
face $322 -1 $-1 $153 $248 $15 $-1 $323 forward single #
plane-surface $-1 -1 $-1 -3.535332254216517355e-12 10.99999999999999645 17.99999999999999289 -3.070371370901301746e-13 1 -2.327698545518927436e-17 10 3.070371370901301847e-12 1.532922818390353259e-14 forward_v I I I I #
loop $-1 -1 $-1 $-1 $251 $256 #
DXID-attrib $-1 -1 $-1 $-1 $206 @10 ASM ENTITY @36 898198ab-1f28-4512-930b-f691b8827d86 #
ellipse-curve $-1 -1 $-1 21.99999999999985434 6.750365408054534913e-12 13.00000000000002665 1.532922818390360437e-15 -2.327698545471861098e-17 -1 3.377408507991432073e-12 -11 2.560468400070820642e-16 1 I I #
point $-1 -1 $-1 21.99999999999647571 11.00000000000675193 13.00000000000002665 #
point $-1 -1 $-1 22.00000000000322942 -10.99999999999324984 13.00000000000002665 #
DXID-attrib $-1 -1 $-1 $-1 $214 @10 ASM ENTITY @36 32019a41-da27-4154-a0b1-865b72c000f0 #
loop $-1 -1 $-1 $-1 $311 $214 #
plane-surface $-1 -1 $-1 10.9999999999998419 3.373073284990375789e-12 18.00000000000001066 1.532922818390360437e-15 -2.327698545471861098e-17 -1 10 3.070371370901301847e-12 1.532922818390353259e-14 forward_v I I I I #
DXID-attrib $-1 -1 $-1 $-1 $217 @10 ASM ENTITY @36 d9b57697-b493-437d-b532-c67a75602ccc #
face $324 -1 $-1 $325 $326 $13 $-1 $327 forward single #
loop $-1 -1 $-1 $328 $329 $217 #
cone-surface $-1 -1 $-1 14.14213562372390243 14.14213562373530841 -4.54747350886464119e-13 -1.724950288194713613e-15 2.327698545470817706e-17 1 -2.674999999999997158 -8.558623302308656065e-13 -4.61424202092083442e-15 1 I I 0 -1 2.674999999999997158 forward I I I I #
loop $-1 -1 $-1 $-1 $330 $161 #
coedge $-1 -1 $-1 $278 $278 $331 $332 reversed $218 $-1 #
coedge $-1 -1 $-1 $279 $279 $220 $280 forward $333 $-1 #
edge $-1 -1 $-1 $334 0 $334 6.283185307179586232 $279 $335 forward @7 unknown #
DXID-attrib $-1 -1 $-1 $-1 $222 @10 ASM ENTITY @36 bf01add8-4423-48b6-b056-82369f324a52 #
vertex $-1 -1 $-1 $222 $336 #
ellipse-curve $-1 -1 $-1 -2.501110429875552654e-12 -1.973170975732222782e-13 12.99999999999954525 -1.723925475178540736e-15 2.32769854547085037e-17 1 11 3.519433881323189427e-12 1.896318022696386901e-14 1 I I #
point $-1 -1 $-1 1.249999999996248334 3.999885576502510087 12.99999999999954525 #
DXID-attrib $-1 -1 $-1 $-1 $228 @10 ASM ENTITY @36 b3379b0f-c190-4f6f-b688-ff678f6a65bc #
face $337 -1 $-1 $199 $338 $15 $-1 $339 forward single #
loop $-1 -1 $-1 $340 $341 $228 #
cone-surface $-1 -1 $-1 1.07778577061245569e-12 -4.000114423497695526 12.99999999999999289 1.532922818390360437e-15 -2.327698545471861098e-17 -1 1.25 3.837964213626627309e-13 1.916153522987941573e-15 1 I I 0 1 1.25 forward I I I I #
coedge $-1 -1 $-1 $289 $289 $232 $290 forward $229 $-1 #
edge $342 -1 $-1 $343 0 $343 6.283185307179586232 $232 $344 forward @7 unknown #
loop $-1 -1 $-1 $265 $233 $256 #
DXID-attrib $-1 -1 $-1 $-1 $234 @10 ASM ENTITY @36 9e2c4846-ec34-4bda-a234-e7614cf41dc2 #
vertex $-1 -1 $-1 $234 $345 #
ellipse-curve $-1 -1 $-1 21.99999999999982236 6.75083094776362913e-12 33.00000000000002842 -1.532922818390360437e-15 2.327698545471861098e-17 1 -11 -3.377408507991432073e-12 -1.686215100229388869e-14 1 I I #
coedge $-1 -1 $-1 $295 $295 $235 $296 reversed $340 $-1 #
edge $346 -1 $-1 $347 -3.141592653589793116 $347 3.141592653589793116 $235 $348 forward @7 unknown #
DXID-attrib $-1 -1 $-1 $-1 $237 @10 ASM ENTITY @36 6f1152c2-c245-47ec-b360-291547584790 #
vertex $-1 -1 $-1 $237 $349 #
ellipse-curve $-1 -1 $-1 -1.377817436718193773e-12 3.999885576502300477 12.99999999999999289 -1.532922818390360437e-15 2.327698545471861098e-17 1 -3.837964213626627309e-13 1.25 -2.909623181898659372e-17 1 I I #
coedge $-1 -1 $-1 $244 $246 $312 $350 forward $248 $-1 #
DXID-attrib $-1 -1 $-1 $-1 $245 @10 ASM ENTITY @36 85c66413-c34a-45b8-8ebc-9fe7b5d637d3 #
vertex $-1 -1 $-1 $261 $351 #
straight-curve $-1 -1 $-1 -3.535332254216517355e-12 10.99999999999999645 17.99999999999999289 1.532922818390360516e-14 -2.327698545471861098e-16 -10 I I #
DXID-attrib $-1 -1 $-1 $-1 $247 @10 ASM ENTITY @36 751ee77c-f020-48eb-884e-ac713f150a33 #
vertex $-1 -1 $-1 $254 $352 #
straight-curve $-1 -1 $-1 3.21948476176634679e-12 -11.00000000000000355 17.99999999999999289 1.532922818390360516e-14 -2.327698545471861098e-16 -10 I I #
coedge $-1 -1 $-1 $251 $258 $311 $353 reversed $265 $-1 #
DXID-attrib $-1 -1 $-1 $-1 $252 @10 ASM ENTITY @36 a758cc35-2d67-42cb-9f3b-3278c9679fca #
vertex $-1 -1 $-1 $254 $354 #
straight-curve $-1 -1 $-1 22.00000000000322586 -10.99999999999324984 18.00000000000002842 1.532922818390360516e-14 -2.327698545471861098e-16 -10 I I #
coedge $-1 -1 $-1 $260 $253 $307 $353 forward $271 $-1 #
coedge $-1 -1 $-1 $253 $260 $300 $350 reversed $271 $-1 #
DXID-attrib $-1 -1 $-1 $-1 $254 @10 ASM ENTITY @36 439b87fa-5b79-4423-a068-c918866227e1 #
straight-curve $-1 -1 $-1 22.00000000000322586 -10.99999999999324984 18.00000000000002842 -10 -3.070371370901301847e-12 -1.532922818390353259e-14 F 0 F 2.200000000000000178 #
DXID-attrib $-1 -1 $-1 $-1 $256 @10 ASM ENTITY @36 36ac36fb-f96a-432e-884e-e6274f333a76 #
cone-surface $-1 -1 $-1 21.99999999999984368 6.750481792981808265e-12 18.00000000000002487 1.532922818390360437e-15 -2.327698545471861098e-17 -1 3.377408507991432073e-12 -11 2.560468400070820642e-16 1 I I 0 1 11 forward I I I I #
DXID-attrib $-1 -1 $-1 $-1 $259 @10 ASM ENTITY @36 b1ea33ac-c6a1-429d-838c-57a0bd185094 #
vertex $-1 -1 $-1 $259 $355 #
straight-curve $-1 -1 $-1 21.99999999999646505 11.00000000000675193 18.00000000000002487 1.532922818390360516e-14 -2.327698545471861098e-16 -10 I I #
DXID-attrib $-1 -1 $-1 $-1 $261 @10 ASM ENTITY @36 33402589-a941-47ef-afea-b7feff467367 #
straight-curve $-1 -1 $-1 -3.535332254216517355e-12 10.99999999999999645 17.99999999999999289 10 3.070371370901301847e-12 1.532922818390353259e-14 F 0 F 2.200000000000000178 #
DXID-attrib $-1 -1 $-1 $-1 $263 @10 ASM ENTITY @36 19bab01b-7c0e-49af-9d39-adca115fd013 #
cone-surface $-1 -1 $-1 -1.579237462250854596e-13 -4.335223001056195334e-15 17.99999999999999289 1.532922818390360437e-15 -2.327698545471861098e-17 -1 3.377408507991432073e-12 -11 2.560468400070820642e-16 1 I I 0 1 11 forward I I I I #
DXID-attrib $-1 -1 $-1 $-1 $274 @10 ASM ENTITY @36 96c61a87-0b0c-4d5f-baed-ba262f30d6bf #
face $356 -1 $-1 $357 $358 $13 $-1 $359 forward single #
loop $-1 -1 $-1 $360 $361 $274 #
cone-surface $-1 -1 $-1 -14.14213562373788591 14.14213562372614419 -4.54747350886464119e-13 -1.724950288194713613e-15 2.327698545470817706e-17 1 -2.675000000000000711 -8.558623302308667172e-13 -4.614242020920839942e-15 1 I I 0 -1 2.675000000000000711 forward I I I I #
loop $-1 -1 $-1 $-1 $362 $217 #
coedge $-1 -1 $-1 $329 $329 $363 $364 reversed $275 $-1 #
coedge $-1 -1 $-1 $330 $330 $365 $366 forward $277 $-1 #
coedge $-1 -1 $-1 $331 $331 $278 $332 forward $367 $-1 #
edge $368 -1 $-1 $369 -3.141592653589793116 $369 3.141592653589793116 $278 $370 forward @7 unknown #
loop $-1 -1 $-1 $371 $279 $372 #
vertex $-1 -1 $-1 $280 $373 #
ellipse-curve $-1 -1 $-1 -2.501110429875552654e-12 -1.974334825004948228e-13 7.999999999999545253 1.723925475178540736e-15 -2.32769854547085037e-17 -1 11 3.519433881323189427e-12 1.897445317014176928e-14 1 I I #
point $-1 -1 $-1 10.99999999999749889 3.322116783749961091e-12 12.99999999999954525 #
DXID-attrib $-1 -1 $-1 $-1 $286 @10 ASM ENTITY @36 5bd0fcc9-b6dc-4db0-b670-f56e49507fd4 #
loop $-1 -1 $-1 $-1 $374 $286 #
plane-surface $-1 -1 $-1 1.08245392800666596e-12 -4.000114423497696414 9.999999999999992895 1.532922818390360437e-15 -2.327698545471861098e-17 -1 10 3.070371370901301847e-12 1.532922818390353259e-14 forward_v I I I I #
loop $-1 -1 $-1 $-1 $295 $228 #
coedge $-1 -1 $-1 $341 $341 $374 $375 reversed $287 $-1 #
DXID-attrib $-1 -1 $-1 $-1 $290 @10 ASM ENTITY @36 40795db6-10de-464c-a03f-ccf83a079ae1 #
vertex $-1 -1 $-1 $290 $376 #
ellipse-curve $-1 -1 $-1 -1.373218668263022777e-12 3.999885576502300477 9.999999999999992895 1.532922818390360437e-15 -2.327698545471861098e-17 -1 1.25 3.837964213626627309e-13 1.916153522987941573e-15 1 I I #
point $-1 -1 $-1 10.99999999999982059 3.373422439772196654e-12 33.00000000000001421 #
DXID-attrib $-1 -1 $-1 $-1 $296 @10 ASM ENTITY @36 34c4c0c7-2e50-4b3e-9a70-7d04c44c49ce #
vertex $-1 -1 $-1 $296 $377 #
ellipse-curve $-1 -1 $-1 1.07778577061245569e-12 -4.000114423497695526 12.99999999999999289 -1.532922818390360437e-15 2.327698545471861098e-17 1 -3.837964213626627309e-13 1.25 -2.909623181898659372e-17 1 I I #
point $-1 -1 $-1 -9.941740962054241895e-13 2.749885576502300033 12.99999999999999289 #
edge $378 -1 $-1 $305 0 $302 3.141592653589793116 $300 $379 forward @7 unknown #
point $-1 -1 $-1 -3.535332254216517355e-12 10.99999999999999645 17.99999999999999289 #
point $-1 -1 $-1 3.21948476176634679e-12 -11.00000000000000355 17.99999999999999289 #
edge $-1 -1 $-1 $309 -1.570796326794896558 $318 1.570796326794896558 $311 $380 forward @7 unknown #
point $-1 -1 $-1 22.00000000000322586 -10.99999999999324984 18.00000000000002842 #
point $-1 -1 $-1 21.99999999999646505 11.00000000000675193 18.00000000000002487 #
DXID-attrib $-1 -1 $-1 $-1 $325 @10 ASM ENTITY @36 1b831266-1086-44be-ba2e-b865053fd7c3 #
face $381 -1 $-1 $382 $383 $13 $-1 $384 forward single #
loop $-1 -1 $-1 $385 $386 $325 #
cone-surface $-1 -1 $-1 -14.14213562372901833 -14.14213562373560151 -4.54747350886464119e-13 -1.724950288194713613e-15 2.327698545470817706e-17 1 -2.675000000000002487 -8.558623302308672221e-13 -4.614242020920843098e-15 1 I I 0 -1 2.675000000000002487 forward I I I I #
loop $-1 -1 $-1 $-1 $387 $274 #
coedge $-1 -1 $-1 $361 $361 $388 $389 reversed $326 $-1 #
coedge $-1 -1 $-1 $362 $362 $390 $391 forward $328 $-1 #
coedge $-1 -1 $-1 $363 $363 $329 $364 forward $392 $-1 #
edge $393 -1 $-1 $394 -3.141592653589793116 $394 3.141592653589793116 $329 $395 forward @7 unknown #
coedge $-1 -1 $-1 $365 $365 $330 $366 reversed $396 $-1 #
edge $397 -1 $-1 $398 -3.141592653589793116 $398 3.141592653589793116 $330 $399 forward @7 unknown #
loop $-1 -1 $-1 $-1 $331 $372 #
DXID-attrib $-1 -1 $-1 $-1 $332 @10 ASM ENTITY @36 7dc6a822-d325-4aa7-b425-635faea1e095 #
vertex $-1 -1 $-1 $332 $400 #
ellipse-curve $-1 -1 $-1 14.14213562373288369 -14.14213562372663091 7.999999999999545253 1.723925475178540736e-15 -2.32769854547085037e-17 -1 -2.674999999999998934 -8.558623302308662124e-13 -4.611500646102574296e-15 1 I I #
loop $-1 -1 $-1 $401 $402 $372 #
face $403 -1 $-1 $404 $333 $13 $-1 $405 forward single #
point $-1 -1 $-1 10.99999999999749889 3.322000398822688546e-12 7.999999999999545253 #
coedge $-1 -1 $-1 $374 $374 $341 $375 forward $338 $-1 #
edge $406 -1 $-1 $407 0 $407 6.283185307179586232 $341 $408 forward @7 unknown #
point $-1 -1 $-1 1.249999999998626876 3.99988557650268417 9.999999999999994671 #
point $-1 -1 $-1 1.461429111125225273e-12 -5.250114423497696414 12.99999999999999289 #
DXID-attrib $-1 -1 $-1 $-1 $350 @10 ASM ENTITY @36 82e453f0-54c8-413c-a7ec-2e6063330548 #
ellipse-curve $-1 -1 $-1 -1.579237462250854596e-13 -4.335223001056195334e-15 17.99999999999999289 1.532922818390360437e-15 -2.327698545471861098e-17 -1 3.377408507991432073e-12 -11 2.560468400070820642e-16 1 F 0 F 3.141592653589793116 #
ellipse-curve $-1 -1 $-1 21.99999999999984368 6.750481792981808265e-12 18.00000000000002487 1.532922818390360437e-15 -2.327698545471861098e-17 -1 -11 -3.377408507991432073e-12 -1.686215100229388869e-14 1 I I #
DXID-attrib $-1 -1 $-1 $-1 $357 @10 ASM ENTITY @36 488b028a-59da-48e7-8d8f-60c2f9987f07 #
face $409 -1 $-1 $372 $410 $13 $-1 $411 forward single #
loop $-1 -1 $-1 $412 $413 $357 #
cone-surface $-1 -1 $-1 -20.00000000082468432 -1.790113276360215845e-11 -4.54747350886464119e-13 -1.724950288194713613e-15 2.327698545470817706e-17 1 -1.213260264802102248e-06 -3.499999999333669898 8.146735626232504271e-17 1 I I 0 -1 3.499999999333880396 forward I I I I #
loop $-1 -1 $-1 $-1 $414 $325 #
coedge $-1 -1 $-1 $386 $386 $415 $416 reversed $358 $-1 #
coedge $-1 -1 $-1 $387 $387 $417 $418 forward $360 $-1 #
coedge $-1 -1 $-1 $388 $388 $361 $389 forward $419 $-1 #
edge $420 -1 $-1 $421 -3.141592653589793116 $421 3.141592653589793116 $361 $422 forward @7 unknown #
coedge $-1 -1 $-1 $390 $390 $362 $391 reversed $423 $-1 #
edge $424 -1 $-1 $425 -3.141592653589793116 $425 3.141592653589793116 $362 $426 forward @7 unknown #
loop $-1 -1 $-1 $367 $363 $372 #
DXID-attrib $-1 -1 $-1 $-1 $364 @10 ASM ENTITY @36 95a9019b-6a3c-4bba-91fc-39e7c504eca3 #
vertex $-1 -1 $-1 $364 $427 #
ellipse-curve $-1 -1 $-1 14.14213562372390243 14.14213562373530841 7.999999999999545253 1.723925475178540736e-15 -2.32769854547085037e-17 -1 -2.674999999999997158 -8.558623302308656065e-13 -4.61150064610257114e-15 1 I I #
loop $-1 -1 $-1 $-1 $365 $404 #
DXID-attrib $-1 -1 $-1 $-1 $366 @10 ASM ENTITY @36 cc31ad5f-ad0f-47b1-89ff-5907ecb5128d #
vertex $-1 -1 $-1 $366 $428 #
ellipse-curve $-1 -1 $-1 14.14213562373299737 -14.14213562372663091 -4.54747350886464119e-13 1.723925475178540736e-15 -2.32769854547085037e-17 -1 -2.674999999999998934 -8.558623302308662124e-13 -4.611500646102574296e-15 1 I I #
point $-1 -1 $-1 16.81713562373283821 -14.14213562372577471 7.999999999999545253 #
loop $-1 -1 $-1 $429 $430 $372 #
coedge $-1 -1 $-1 $402 $402 $431 $432 forward $371 $-1 #
DXID-attrib $-1 -1 $-1 $-1 $372 @10 ASM ENTITY @36 bcd085ed-c8ed-459f-a9f6-d4ff4ca14a87 #
face $433 -1 $-1 $-1 $434 $13 $-1 $435 reversed single #
plane-surface $-1 -1 $-1 -2.501110429875552654e-12 -1.986824834031981239e-13 7.999999999999545253 -1.723925475178540736e-15 2.32769854547085037e-17 1 10 3.199485346657444604e-12 1.723925475178533202e-14 forward_v I I I I #
DXID-attrib $-1 -1 $-1 $-1 $375 @10 ASM ENTITY @36 4a5c5f6e-be6a-4b87-b909-04e1763e1b78 #
vertex $-1 -1 $-1 $375 $436 #
ellipse-curve $-1 -1 $-1 1.082384539067626686e-12 -4.000114423497695526 9.999999999999992895 1.532922818390360437e-15 -2.327698545471861098e-17 -1 1.25 3.837964213626627309e-13 1.916153522987941573e-15 1 I I #
DXID-attrib $-1 -1 $-1 $-1 $382 @10 ASM ENTITY @36 64851896-5268-4463-a19c-43c60ab8d9ad #
loop $-1 -1 $-1 $437 $431 $382 #
cone-surface $-1 -1 $-1 -2.501110429875552654e-12 -1.976196983841567436e-13 -4.54747350886464119e-13 -1.724950288194713613e-15 2.327698545470817706e-17 1 24.49999999999994316 7.838739099310722335e-12 4.226128206077020031e-14 1 I I 0 1 24.49999999999994316 forward I I I I #
loop $-1 -1 $-1 $-1 $438 $357 #
coedge $-1 -1 $-1 $413 $413 $430 $439 reversed $383 $-1 #
coedge $-1 -1 $-1 $414 $414 $440 $441 forward $385 $-1 #
coedge $-1 -1 $-1 $415 $415 $386 $416 forward $429 $-1 #
edge $442 -1 $-1 $443 -3.141592653589793116 $443 3.141592653589793116 $386 $444 forward @7 unknown #
coedge $-1 -1 $-1 $417 $417 $387 $418 reversed $445 $-1 #
edge $446 -1 $-1 $447 -3.141592653589793116 $447 3.141592653589793116 $387 $448 forward @7 unknown #
loop $-1 -1 $-1 $392 $388 $372 #
DXID-attrib $-1 -1 $-1 $-1 $389 @10 ASM ENTITY @36 99c41c82-d2dd-44fc-a5fe-1e77fc218297 #
vertex $-1 -1 $-1 $389 $449 #
ellipse-curve $-1 -1 $-1 -14.14213562373788591 14.14213562372614419 7.999999999999431566 1.723925475178540736e-15 -2.32769854547085037e-17 -1 -2.675000000000000711 -8.558623302308667172e-13 -4.611500646102577451e-15 1 I I #
loop $-1 -1 $-1 $396 $390 $404 #
DXID-attrib $-1 -1 $-1 $-1 $391 @10 ASM ENTITY @36 5fb0a7ad-4381-4e6e-a68e-f70ced06ead9 #
vertex $-1 -1 $-1 $391 $450 #
ellipse-curve $-1 -1 $-1 14.14213562372390243 14.14213562373530841 -4.54747350886464119e-13 1.723925475178540736e-15 -2.32769854547085037e-17 -1 -2.674999999999997158 -8.558623302308656065e-13 -4.61150064610257114e-15 1 I I #
point $-1 -1 $-1 16.81713562372385695 14.14213562373616639 7.999999999999545253 #
point $-1 -1 $-1 16.8171356237329519 -14.14213562372577471 -4.54747350886464119e-13 #
loop $-1 -1 $-1 $419 $415 $372 #
coedge $-1 -1 $-1 $430 $430 $413 $439 forward $401 $-1 #
coedge $-1 -1 $-1 $431 $431 $402 $432 reversed $410 $-1 #
edge $451 -1 $-1 $452 -3.801642184150578105e-71 $452 6.283185307179586232 $431 $453 forward @7 unknown #
DXID-attrib $-1 -1 $-1 $-1 $404 @10 ASM ENTITY @36 2552b047-e519-46b2-b145-acf96f205cb7 #
loop $-1 -1 $-1 $454 $455 $404 #
plane-surface $-1 -1 $-1 -2.501110429875552654e-12 -1.988686992868600447e-13 -4.54747350886464119e-13 -1.723925475178540736e-15 2.32769854547085037e-17 1 10 3.199485346657444604e-12 1.723925475178533202e-14 forward_v I I I I #
point $-1 -1 $-1 1.250000000001082467 -4.000114423497311833 9.999999999999994671 #
loop $-1 -1 $-1 $-1 $456 $382 #
coedge $-1 -1 $-1 $438 $438 $457 $458 forward $412 $-1 #
edge $459 -1 $-1 $460 -1.732301565860514357e-07 $460 6.28318513394942979 $413 $461 forward @7 unknown #
coedge $-1 -1 $-1 $440 $440 $414 $441 reversed $462 $-1 #
edge $463 -1 $-1 $464 -3.141592653589793116 $464 3.141592653589793116 $414 $465 forward @7 unknown #
DXID-attrib $-1 -1 $-1 $-1 $416 @10 ASM ENTITY @36 95f28a9d-7635-4937-a6bb-d77da604b0fd #
vertex $-1 -1 $-1 $416 $466 #
ellipse-curve $-1 -1 $-1 -14.14213562372913202 -14.14213562373560151 7.999999999999431566 1.723925475178540736e-15 -2.32769854547085037e-17 -1 -2.675000000000002487 -8.558623302308672221e-13 -4.611500646102580607e-15 1 I I #
loop $-1 -1 $-1 $423 $417 $404 #
DXID-attrib $-1 -1 $-1 $-1 $418 @10 ASM ENTITY @36 3d3d2a46-c341-4d49-b858-73011c626548 #
vertex $-1 -1 $-1 $418 $467 #
ellipse-curve $-1 -1 $-1 -14.14213562373788591 14.14213562372614419 -4.54747350886464119e-13 1.723925475178540736e-15 -2.32769854547085037e-17 -1 -2.675000000000000711 -8.558623302308667172e-13 -4.611500646102577451e-15 1 I I #
point $-1 -1 $-1 -11.46713562373793138 14.14213562372700039 7.999999999999431566 #
point $-1 -1 $-1 16.81713562372385695 14.14213562373616639 -4.54747350886464119e-13 #
DXID-attrib $-1 -1 $-1 $-1 $432 @10 ASM ENTITY @36 71b03198-6d06-469d-9b79-1ecf96c790ef #
vertex $-1 -1 $-1 $432 $468 #
ellipse-curve $-1 -1 $-1 -2.501110429875552654e-12 -1.974334825004948228e-13 7.999999999999545253 -1.723925475178540736e-15 2.32769854547085037e-17 1 24.49999999999994316 7.838739099310722335e-12 4.223617414187397005e-14 1 I I #
loop $-1 -1 $-1 $462 $457 $404 #
coedge $-1 -1 $-1 $455 $455 $456 $469 reversed $434 $-1 #
coedge $-1 -1 $-1 $456 $456 $455 $469 forward $437 $-1 #
coedge $-1 -1 $-1 $457 $457 $438 $458 reversed $454 $-1 #
edge $470 -1 $-1 $471 -1.732301565860514357e-07 $471 6.28318513394942979 $438 $472 forward @7 unknown #
DXID-attrib $-1 -1 $-1 $-1 $439 @10 ASM ENTITY @36 cb74622d-1804-4d87-8c8f-88046bcb2870 #
vertex $-1 -1 $-1 $439 $473 #
ellipse-curve $-1 -1 $-1 -20.00000000082468432 -1.790094654771857408e-11 7.999999999999431566 1.723925475178540736e-15 -2.32769854547085037e-17 -1 -1.213260264802102248e-06 -3.499999999333669898 8.146735750569109205e-17 1 I I #
loop $-1 -1 $-1 $445 $440 $404 #
DXID-attrib $-1 -1 $-1 $-1 $441 @10 ASM ENTITY @36 0d55db22-ce31-4d5a-b521-5aea633757fa #
vertex $-1 -1 $-1 $441 $474 #
ellipse-curve $-1 -1 $-1 -14.14213562372901833 -14.14213562373560151 -4.54747350886464119e-13 1.723925475178540736e-15 -2.32769854547085037e-17 -1 -2.675000000000002487 -8.558623302308672221e-13 -4.611500646102580607e-15 1 I I #
point $-1 -1 $-1 -11.4671356237291775 -14.14213562373474709 7.999999999999431566 #
point $-1 -1 $-1 -11.46713562373793138 14.14213562372700039 -4.54747350886464119e-13 #
point $-1 -1 $-1 24.4999999999973852 7.641305616810187123e-12 7.999999999999545253 #
edge $475 -1 $-1 $476 -3.801642184150578105e-71 $476 6.283185307179586232 $456 $477 forward @7 unknown #
DXID-attrib $-1 -1 $-1 $-1 $458 @10 ASM ENTITY @36 972b8cbc-4bb5-481f-b19b-0ba425b2026a #
vertex $-1 -1 $-1 $458 $478 #
ellipse-curve $-1 -1 $-1 -20.00000000082468432 -1.790113276360215845e-11 -4.54747350886464119e-13 1.723925475178540736e-15 -2.32769854547085037e-17 -1 -1.213260264802102248e-06 -3.499999999333669898 8.146735750569109205e-17 1 I I #
point $-1 -1 $-1 -20.00000060777938415 -3.499999999440913001 7.999999999999431566 #
point $-1 -1 $-1 -11.46713562372906381 -14.14213562373474709 -4.54747350886464119e-13 #
DXID-attrib $-1 -1 $-1 $-1 $469 @10 ASM ENTITY @36 c7ed81e2-dfe8-42d2-bdef-10e485b47279 #
vertex $-1 -1 $-1 $469 $479 #
ellipse-curve $-1 -1 $-1 -2.501110429875552654e-12 -1.976196983841567436e-13 -4.54747350886464119e-13 -1.723925475178540736e-15 2.32769854547085037e-17 1 24.49999999999994316 7.838739099310722335e-12 4.223617414187397005e-14 1 I I #
point $-1 -1 $-1 -20.00000060777938415 -3.499999999440913001 -4.54747350886464119e-13 #
point $-1 -1 $-1 24.4999999999973852 7.641119400926525202e-12 -4.54747350886464119e-13 #
End-of-ACIS-data 